<?xml version="1.0" encoding="utf-8"?>
<svg width="600" height="450"
     xmlns="http://www.w3.org/2000/svg">

<g stroke="black" stroke-width="5">
<path fill="#0035f3" opacity="0.6" d="M50,225 L212,107.3 L374,225 L212,342.7z"/>
<path stroke="red" fill="none" d="M131,166.15 A100.122,100.122 0 0 1 131,283.85"/>
<path stroke="yellow" fill="none" d="M293,166.15 A100.122,100.122 0 0 0 293,283.85"/>
<path fill="none" d="M50,225 L212,107.3 L374,225 L212,342.7z"/>

<path fill="#08f" opacity="0.6" d="M426,225 L487.879,34.558 L549.757,225 L487.879,415.443z"/>
<path stroke="red" fill="none" d="M459.435,130.626 A100.122,100.122 0 0 1 459.435,319.374"/>
<path stroke="yellow" fill="none" d="M516.565,130.626 A100.122,100.122 0 0 0 516.565,319.374"/>
<path fill="none" opacity="0.6" d="M426,225 L487.879,34.558 L549.757,225 L487.879,415.443z"/>

</g>
</svg>
