<?xml version="1.0" encoding="UTF-8" standalone="no"?>
<!DOCTYPE svg PUBLIC "-//W3C//DTD SVG 20010904//EN"
              "http://www.w3.org/TR/2001/REC-SVG-20010904/DTD/svg10.dtd">

<svg xmlns="http://www.w3.org/2000/svg"
     width="6.33333in" height="8.66667in"
     viewBox="0 0 570 780">
  <path id="Imported Path"
        fill="none" stroke="black" stroke-width="1"
        d="M 226.28,195.64
           C 226.28,195.64 226.28,324.70 226.28,324.70
             226.28,324.70 114.51,389.23 114.51,389.23
             114.51,389.23 226.28,582.81 226.28,582.81
             226.28,582.81 449.81,582.81 449.81,582.81
             449.81,582.81 449.81,711.86 449.81,711.86
             449.81,711.86 561.57,776.39 561.57,776.39
             561.57,776.39 673.34,582.81 673.34,582.81
             673.34,582.81 561.57,389.23 561.57,389.23
             561.57,389.23 673.34,324.70 673.34,324.70
             673.34,324.70 673.34,195.64 673.34,195.64
             673.34,195.64 673.34,66.59 673.34,66.59
             673.34,66.59 561.57,2.06 561.57,2.06
             561.57,2.06 449.81,195.64 449.81,195.64
             449.81,195.64 226.28,195.64 226.28,195.64 Z" />
</svg>
