<?xml version="1.0" encoding="UTF-8" standalone="no"?>
<!DOCTYPE svg PUBLIC "-//W3C//DTD SVG 20010904//EN"
              "http://www.w3.org/TR/2001/REC-SVG-20010904/DTD/svg10.dtd">

<svg xmlns="http://www.w3.org/2000/svg"
     width="5.66667in" height="7.94444in"
     viewBox="0 0 510 715">
  <path id="Imported Path #1"
        fill="none" stroke="black" stroke-width="1"
        d="M 421.24,137.75
           C 426.41,192.52 403.57,262.71 348.53,264.50
             348.53,264.50 348.70,264.59 348.70,264.59
             350.49,319.62 420.61,342.46 475.30,337.28
             475.30,337.28 474.32,337.02 474.32,337.02
             506.26,381.88 521.51,454.04 474.68,483.12
             474.68,483.12 474.76,483.03 474.76,483.03
             428.02,512.11 443.18,584.18 475.12,629.14
             475.12,629.14 475.12,628.16 475.12,628.16
             452.19,678.20 397.50,727.52 348.88,701.48
             348.88,701.48 348.79,701.48 348.79,701.48
             374.75,652.95 325.51,598.01 275.55,575.08
             275.55,575.08 276.53,575.08 276.53,575.08
             231.65,607.02 159.57,622.27 130.57,575.44
             177.32,546.36 162.07,474.29 130.22,429.34
             130.22,429.34 131.11,429.87 131.11,429.87
             76.33,435.04 6.21,412.21 4.42,357.17
             4.42,357.17 4.42,357.09 4.42,357.09
             59.47,355.30 82.31,285.19 77.13,230.34
             77.13,230.34 76.51,231.23 76.51,231.23
             121.38,199.30 193.38,184.04 222.46,230.87
             222.46,230.87 222.64,230.78 222.64,230.78
             269.48,201.70 254.22,129.63 222.29,84.77
             222.29,84.77 222.29,85.93 222.29,85.93
             245.21,35.80 299.90,-13.53 348.53,12.52
             348.53,12.52 348.61,12.52 348.61,12.52
             322.65,61.04 371.90,115.99 421.95,138.91" />
</svg>
