<?xml version="1.0" encoding="UTF-8" standalone="no"?>
<!DOCTYPE svg PUBLIC "-//W3C//DTD SVG 20010904//EN"
              "http://www.w3.org/TR/2001/REC-SVG-20010904/DTD/svg10.dtd">

<svg xmlns="http://www.w3.org/2000/svg"
     width="5.22222in" height="4.33333in"
     viewBox="0 0 470 390">
  <path id="arc red"
        fill="none" stroke="black" stroke-width="1"
        d="M 183.85,114.00
           C 167.34,126.03 147.00,133.12 125.00,133.12
             103.01,133.12 82.67,126.03 66.15,114.01M 372.43,100.63
           C 411.29,114.36 439.12,151.43 439.12,195.00
             439.12,238.54 411.33,275.59 372.52,289.37" />
  <path id="Imported Path #5"
        fill="none" stroke="black" stroke-width="1"
        d="M 183.85,276.00
           C 167.34,263.97 147.00,256.88 125.00,256.88
             103.01,256.88 82.67,263.97 66.15,275.99M 429.57,100.63
           C 390.71,114.36 362.88,151.43 362.88,195.00
             362.88,238.54 390.67,275.59 429.48,289.37" />
  <path id="outline"
        fill="none" stroke="black" stroke-width="1"
        d="M 125.00,357.00
           C 125.00,357.00 7.30,195.00 7.30,195.00
             7.30,195.00 125.00,33.00 125.00,33.00
             125.00,33.00 242.70,195.00 242.70,195.00
             242.70,195.00 125.00,357.00 125.00,357.00 Z
           M 339.00,195.00
           C 339.00,195.00 400.88,4.56 400.88,4.56
             400.88,4.56 462.76,195.00 462.76,195.00
             462.76,195.00 400.88,385.44 400.88,385.44
             400.88,385.44 339.00,195.00 339.00,195.00 Z" />
</svg>
