<?xml version="1.0" encoding="UTF-8" standalone="no"?>
<!DOCTYPE svg PUBLIC "-//W3C//DTD SVG 20010904//EN"
              "http://www.w3.org/TR/2001/REC-SVG-20010904/DTD/svg10.dtd">

<svg xmlns="http://www.w3.org/2000/svg"
     width="3.66667in" height="2.16667in"
     viewBox="0 0 330 195">
  <path id="Imported Path #11"
        fill="none" stroke="black" stroke-width="1"
        d="M 2.31,96.93
           C 2.31,96.93 129.79,4.32 129.79,4.32
             129.79,4.32 159.88,96.93 159.88,96.93M 2.31,96.93
           C 2.31,96.93 129.79,189.54 129.79,189.54
             129.79,189.54 159.88,96.93 159.88,96.93M 296.73,96.93
           C 296.73,96.93 326.82,4.32 326.82,4.32
             326.82,4.32 199.35,96.93 199.35,96.93M 296.73,96.93
           C 296.73,96.93 326.82,189.54 326.82,189.54
             326.82,189.54 199.35,96.93 199.35,96.93" />
  <path id="Imported Path #10"
        fill="none" stroke="black" stroke-width="1"
        d="M 141.29,39.69
           C 116.48,47.75 99.69,70.86 99.69,96.93M 99.69,96.93
           C 99.69,123.00 116.48,146.11 141.29,154.17" />
  <path id="Imported Path #9"
        fill="none" stroke="black" stroke-width="1"
        d="M 99.69,96.93
           C 99.69,76.36 93.18,56.33 81.10,39.69M 81.10,154.17
           C 93.18,137.53 99.69,117.49 99.69,96.93" />
  <path id="Imported Path #4"
        fill="none" stroke="black" stroke-width="1"
        d="M 308.23,61.56
           C 304.51,60.35 300.63,59.74 296.73,59.74
             276.20,59.74 259.53,76.40 259.53,96.93M 259.53,96.93
           C 259.53,117.46 276.20,134.13 296.73,134.13
             300.63,134.13 304.51,133.51 308.23,132.30" />
  <path id="Imported Path #3"
        fill="none" stroke="black" stroke-width="1"
        d="M 259.53,96.93
           C 259.53,84.22 255.51,71.84 248.04,61.56M 248.04,132.30
           C 255.51,122.02 259.53,109.64 259.53,96.93" />
</svg>
